<svg id="Icon" xmlns="http://www.w3.org/2000/svg" width="550" height="550" viewBox="0 0 550 550">
  <metadata><?xpacket begin="﻿" id="W5M0MpCehiHzreSzNTczkc9d"?>
<x:xmpmeta xmlns:x="adobe:ns:meta/" x:xmptk="Adobe XMP Core 5.6-c142 79.160924, 2017/07/13-01:06:39        ">
   <rdf:RDF xmlns:rdf="http://www.w3.org/1999/02/22-rdf-syntax-ns#">
      <rdf:Description rdf:about=""/>
   </rdf:RDF>
</x:xmpmeta>
                                                                                                    
                                                                                                    
                                                                                                    
                                                                                                    
                                                                                                    
                                                                                                    
                                                                                                    
                                                                                                    
                                                                                                    
                                                                                                    
                                                                                                    
                                                                                                    
                                                                                                    
                                                                                                    
                                                                                                    
                                                                                                    
                                                                                                    
                                                                                                    
                                                                                                    
                                                                                                    
                           
<?xpacket end="w"?></metadata>
<defs>
    <style>
      .cls-1 {
        fill: none;
        stroke: rgba(12, 12, 13, 0.8);
        stroke-width: 52px;
      }

      .cls-2 {
		fill: rgba(12, 12, 13, 0.8);
      }
    </style>
  </defs>
  <g id="Cookie">
    <path id="Outline" class="cls-1" d="M216,28c33.48-5.132,102.726,9.587,159,27,45.8,13.247,63.811,28.682,79,39,53.218,40.036,63.027,106.733,64,181-2.335,62.58-34.256,127.162-65.927,162.294-55.677,41.9-105.788,100-182.883,82.532C179.232,511.7,83.779,474.012,56.532,392.255,41.558,356.161,30.6,282.5,40,218c0.444-3.045.63-12.878,4-14,3.994-2.749,3.962-2.465,7,1,69.227,42.733,106.236-19.056,97-50,67.031-16.561,74.357-71.861,50-112-4.328-3.238-4.716-4.9-2-7C200.339,32.891,196.868,34.481,216,28Z"/>
    <path class="cls-2" d="M357,359c14.853,2.806,24.024,2.048,31,12,1.214,8.785,10.983,16.759,10.983,27.833C392.626,412.473,395.29,414,375,423c-9.1,4.289-61.172,12.731-65.86,2.286-3.8-8.47.882-17.488-.14-25.286-0.344-9.4-4.645-19.053-3.7-26.444,2.229-17.353,7.8-28.667,15.7-31.556C329.552,338.87,346.645,357.044,357,359Z"/>
    <path class="cls-2" d="M610,111"/>
    <path class="cls-2" d="M196,341c28.279,2.329,33.972,11.607,37.7,40.329,4.588,14.191-5.475,26.544-13.7,37.671-11,6.572-27.155,6.683-40.67,9.461-7.933.332-11.037-2.857-24-7.094-8.332-5.257-16.489-12.658-21.4-20.328-4.16-6.5,6.712-14.209,7.07-18.039-0.308-20.655-12.07-23.7-3.853-32.649C146.949,339.676,179.958,339.481,196,341Z"/>
    <path class="cls-2" d="M398.653,224.016C420.41,227.782,444.483,235.721,448,243c2.689,6.628-.51,17.335-4.136,28.8-3.835,12.678-8.431,21.633-15.071,27.465-20.241,3.121-16.719,7.135-28.681,8.737-7.053-1.223-15.88-18.983-21.112-20-8.323-6.306-24.572-6.025-25.557-10.4-0.38-2.429-.782-5.842,0-8.688,5.014-8.288,9.8-14.351,12.557-21.907,3.541-9.711,5.936-20.128,24.537-22.263A70.6,70.6,0,0,1,398.653,224.016Z"/>
    <path class="cls-2" d="M228.191,210.321c23.308-3.127,19.029-5.354,33.757,10.208,10.553,8.4,16.222,20.235,11.1,29.344-4.494,7.993-7.267,17.241-10.9,25.763-5.752,13.494-16.941,30.953-33.959,27.162-15.9-2.957-35.943-7.49-45.52-20.308-13.714-14.3-7.545-15.734-3.78-24.152C183.25,248.59,197.866,241.59,205,233,213.3,223,214.7,212.027,228.191,210.321Z"/>
    <path class="cls-2" d="M336.006,108.175c11.406,3.057,30.692,8.5,36.4,20.044,3.134,6.341,7.134,11.925,5.6,20.781,0,10.609,1.065,8.8-12,26-6.963,7.91-16.4,13.8-29.994,13.647-9.427,1.765-14.014-5.746-23.79-10.67-7.265-8.421-12.845-20.14-17.047-29.566-4.944-8.446-5.026-20.009,6.475-24.987C311.408,113.639,327.082,106.769,336.006,108.175Z"/>
  </g>
</svg>
