<svg id="Icon" xmlns="http://www.w3.org/2000/svg" width="530" height="530" viewBox="0 0 530 530">
  <metadata><?xpacket begin="﻿" id="W5M0MpCehiHzreSzNTczkc9d"?>
<x:xmpmeta xmlns:x="adobe:ns:meta/" x:xmptk="Adobe XMP Core 5.6-c142 79.160924, 2017/07/13-01:06:39        ">
   <rdf:RDF xmlns:rdf="http://www.w3.org/1999/02/22-rdf-syntax-ns#">
      <rdf:Description rdf:about=""/>
   </rdf:RDF>
</x:xmpmeta>
                                                                                                    
                                                                                                    
                                                                                                    
                                                                                                    
                                                                                                    
                                                                                                    
                                                                                                    
                                                                                                    
                                                                                                    
                                                                                                    
                                                                                                    
                                                                                                    
                                                                                                    
                                                                                                    
                                                                                                    
                                                                                                    
                                                                                                    
                                                                                                    
                                                                                                    
                                                                                                    
                           
<?xpacket end="w"?></metadata>
<defs>
    <style>
      .cls-1 {
        fill: none;
        stroke: rgba(12, 12, 13, 0.8);
        stroke-width: 45px;
      }

      .cls-2 {
		fill: rgba(12, 12, 13, 0.8);
      }
    </style>
  </defs>
  <g id="Cookie">
    <path id="Outline" class="cls-1" d="M244.5,24.139c54.752-8.365,138.617,31.294,176.827,61.837C478.392,119.52,500.362,196.2,497.8,264.634c-2.281,60.944-29.363,124.689-60.307,158.9-54.4,40.8-103.36,97.388-178.687,80.373-87.893-7.917-181.156-44.615-207.778-124.234C36.4,344.525,25.122,276.757,34.307,213.94c0.434-2.965.649-2.261,3.564-3.541,3.633-.287,4.424-0.061,7.762,2.356,33.866,24.525,71.709,33.051,99.741-22.1,0.26-.513.562-1.01,0.841-1.525,77.732,19.127,85.521-21.152,79.664-81.885,28.175-8.23,36.508-32.4,12.572-71.418-1.841-3-2.39-5.419-1.923-8.173C238.847,25.5,237.522,25.577,244.5,24.139Z"/>
    <path class="cls-2" d="M327,392c9.7,1.841,13.333-2.052,16,4,0.993,10.386,7.74,11.231,9.013,18.7,1.192,7,3.09,15.264-1.013,20.3-5.858,7.191-9.506,6.963-31.022,7.438-13.1.843-21.065-1.054-24.978-5.438-5.313-5.952,2.858-16.419,2-23-0.592-16.277,4.846-12.373,8-19C316.993,392.753,318.223,392.167,327,392Z"/>
    <path id="Ellipse_7_copy" data-name="Ellipse 7 copy" class="cls-2" d="M378.525,354.189c-7.759-6.1-18.718-14.374-16.069-21.808,1.953-5.481,1.412-14.893,3.033-20.123,6.386-3.244,13.947-13.569,17.218-14.944,11.249-2.938,14.163.753,24,5.086,11.582,4.659,6.668,12.013,8.3,17.6,2.334,8,7.642,14.35,5.32,20.726-5.02,10.593-9.845,16.779-14.5,19.968C394.922,361.809,387.013,360.865,378.525,354.189Z"/>
    <path class="cls-2" d="M197,378c7.112,6.426,14.725,12.433,16.084,24.375,5.333,8.647,2.255,8.99-.084,11.625a79.631,79.631,0,0,0-18,7c-6.411,3.461-11.433,19.873-20.551,19.563A27.833,27.833,0,0,1,154,424c-7.239-7.624-11.486-12.592-14.385-21-1.5-13.126-3.208-25.415,5.385-33C172.211,360.107,178.987,361.725,197,378Z"/>
    <path class="cls-2" d="M285.845,328.633c0,15.565-6.905,41.1-28.149,28.182-20.864-3.8-36.029-14.09-28.148-28.182,4.942-13.188,12.673-10.455,14.058-25.9,5.179-12.805,15.577-5.258,25.959.3C286.206,305.454,284.159,321.94,285.845,328.633Z"/>
    <path id="Ellipse_6_copy" data-name="Ellipse 6 copy" class="cls-2" d="M295.845,225.633c0,15.564-6.905,41.1-28.149,28.182-20.864-3.8-36.029-14.09-28.148-28.182,4.942-13.188,12.673-10.455,14.058-25.9,5.179-12.805,15.577-5.258,25.959.3C296.206,202.454,294.159,218.94,295.845,225.633Z"/>
    <path class="cls-2" d="M130.283,253.228C140.517,251.933,142.753,262,150,268c8.145,6.747,20.5,9.964,16.458,17.151-9.362,16.666-9.8,35.029-36.175,42.717C121.921,332.1,112.5,313.578,102,313c-10.566-.581-16.923-15.053-11.475-21.017C109.944,277.323,110.052,255.789,130.283,253.228Z"/>
    <path class="cls-2" d="M394,197c21.974-.2,26.322,2.082,20,23-6.876,22.752-6.025,28-28,28-17.691-4.21-41.055,2.59-43.611-13.785C342.055,232.075,355.312,219.508,356,217,379.652,180.425,375.332,197.168,394,197Z"/>
    <path class="cls-2" d="M325.005,92.175c12.186,0.14,49.27,8.267,31,32.826,0,22.222,9.094,23.1-20,30-16.364-11.649-39.7-2.107-41-21-9.425-11.356,2.8-17.95,6-28C300.538,97.412,315.719,93.587,325.005,92.175Z"/>
  </g>
</svg>
